# xmcd
# 
# Track frame offsets:
#     150
#     19539
#     30648
#     42888
#     61371
#     78351
#     84867
#     99543
#     108816
#     120552
#     135774
#     147675
#     162183
#     181113
#     196335
# 
# Disc length: 2798
# 
# Revision: 10
# Processed by: cddbd v1.5.2PL0 Copyright (c) Steve Scherf et al.
# Submitted via: fre:ac v1.0.31
# 
DISCID=b10aec0f
DTITLE=Lindpriid - Lili Marleen
DYEAR=1998
DGENRE=Pop
TTITLE0=Valge sirel
TTITLE1=‹ksik lııtspill
TTITLE2=Kodulinn Split
TTITLE3=Hallis sıdurisinelis
TTITLE4=Kaunitar
TTITLE5=M‰lestus
TTITLE6=Rinde‰‰rses metsas
TTITLE7=Kord mıtetes istus...
TTITLE8=Vsjoravnoo
TTITLE9=Mustlane
TTITLE10=Peagi saabun tagasi su juurde
TTITLE11=Sıduri truudus
TTITLE12=Kawe kelder
TTITLE13=Penni serenaad
TTITLE14=Lili Marleen
EXTD=
EXTT0=
EXTT1=
EXTT2=
EXTT3=
EXTT4=
EXTT5=
EXTT6=
EXTT7=
EXTT8=
EXTT9=
EXTT10=
EXTT11=
EXTT12=
EXTT13=
EXTT14=
PLAYORDER=
